<svg width="56" height="56" xmlns="http://www.w3.org/2000/svg">
 <metadata>Svg Vector Icons : http://www.onlinewebfonts.com/icon</metadata>

 <g>
  <title>background</title>
  <rect fill="none" id="canvas_background" height="58" width="58" y="-1" x="-1"/>
 </g>
 <g>
  <title>Layer 1</title>
  <g stroke="null" id="svg_4">
   <path stroke="null" id="svg_3" d="m20.967195,9.649619c0,0.629369 -0.219817,1.166184 -0.661763,1.605817c-0.441947,0.441947 -0.976448,0.661763 -1.605817,0.661763s-1.166184,-0.219816 -1.605817,-0.661763c-0.441947,-0.441947 -0.661763,-0.976448 -0.661763,-1.605817c0,-0.629369 0.219816,-1.166184 0.661763,-1.605817c0.441947,-0.441947 0.976448,-0.661763 1.605817,-0.661763s1.166184,0.219816 1.605817,0.661763c0.439633,0.439633 0.661763,0.976448 0.661763,1.605817zm12.092217,4.53516l0,5.291791l-16.627377,0l0,-2.26758l3.778529,-3.780843l1.890421,1.890421l6.046109,-6.046109l4.912319,4.912319zm1.13379,-8.316003l-18.894957,0c-0.10181,0 -0.19205,0.037022 -0.266094,0.111065c-0.074043,0.074043 -0.113379,0.164284 -0.111065,0.266094l0,14.362112c0,0.10181 0.037022,0.19205 0.111065,0.266094c0.074043,0.074043 0.164284,0.113379 0.266094,0.111065l18.897271,0c0.10181,0 0.19205,-0.037022 0.266094,-0.111065c0.074043,-0.074043 0.113379,-0.164284 0.111065,-0.266094l0,-14.359798c0,-0.10181 -0.037022,-0.19205 -0.111065,-0.266094c-0.076357,-0.076357 -0.164284,-0.113379 -0.268408,-0.113379zm1.890421,0.379473l0,14.362111c0,0.520618 -0.185108,0.964878 -0.555326,1.335096c-0.370217,0.370217 -0.814478,0.555326 -1.335096,0.555326l-18.894957,0c-0.520618,0 -0.964879,-0.185109 -1.335096,-0.555326c-0.370217,-0.370217 -0.555326,-0.814477 -0.555326,-1.335096l0,-14.362111c0,-0.520618 0.185108,-0.964878 0.555326,-1.335096c0.370217,-0.370217 0.814478,-0.555326 1.335096,-0.555326l18.897271,0c0.520618,0 0.964878,0.185109 1.335096,0.555326c0.367904,0.370217 0.553012,0.814478 0.553012,1.335096z"/>
  </g>
  <metadata transform="matrix(0.38785317775975514,0,0,0.38785317775975514,0,0) " id="svg_13">image/svg+xml</metadata>

  <g transform="rotate(37.33943176269531 14.39206790924072,36.10469055175781) " stroke="null" id="svg_15">
   <g stroke="null" id="svg_11" transform="matrix(0.09485510879381837,0,0,0.09589377857518726,-57.545420787317795,191.65533918887314) ">
    <path stroke="null" clip-rule="evenodd" fill-rule="evenodd" d="m626.266159,-1730.637461c1.125,28.749 5.277,54.82 12.695,78.018c7.205,22.53 18.847,40.222 36.812,53.747c52.018,39.16 153.369,16.572 153.369,16.572l-4.632,-32.843l72.918,42.778l-58.597,58.775l-3.85,-27.303c0,0 -100.347,18.529 -163.905,-34.881c-37.659,-31.646 -53.293,-84.021 -51.593,-153.962c0.266,-0.247 4.728,-0.908 6.783,-0.901z" id="svg_12"/>
   </g>
  </g>
  <g stroke="null" transform="rotate(-151.70269775390625 45.49443054199219,23.14539909362793) " id="svg_21">
   <g stroke="null" id="svg_20" transform="matrix(0.08423488707572835,0,0,0.09615262512921163,-53.85830301074763,201.57866221036957) ">
    <path stroke="null" clip-rule="evenodd" fill-rule="evenodd" d="m1047.345045,-1964.252806c1.125,28.749 5.277,54.82 12.695,78.018c7.205,22.53 18.847,40.222 36.812,53.747c52.018,39.16 153.369,16.572 153.369,16.572l-4.632,-32.843l72.918,42.778l-58.597,58.775l-3.85,-27.303c0,0 -100.347,18.529 -163.905,-34.881c-37.659,-31.646 -53.293,-84.021 -51.593,-153.962c0.266,-0.247 4.728,-0.908 6.783,-0.901z" id="svg_19"/>
   </g>
  </g>
  <g stroke="null" id="svg_25">
   <path stroke="null" id="svg_24" d="m32.294008,38.775714c0,0.629369 -0.219816,1.166184 -0.661763,1.605817c-0.441946,0.441947 -0.976448,0.661763 -1.605817,0.661763s-1.166184,-0.219816 -1.605817,-0.661763c-0.441946,-0.441947 -0.661763,-0.976448 -0.661763,-1.605817c0,-0.629369 0.219817,-1.166184 0.661763,-1.605816c0.441947,-0.441947 0.976448,-0.661764 1.605817,-0.661764s1.166184,0.219817 1.605817,0.661764c0.439633,0.439632 0.661763,0.976447 0.661763,1.605816zm12.092218,4.53516l0,5.291792l-16.627378,0l0,-2.26758l3.778529,-3.780843l1.890421,1.890421l6.046109,-6.046108l4.912319,4.912318zm1.13379,-8.316002l-18.894958,0c-0.10181,0 -0.19205,0.037021 -0.266093,0.111065c-0.074044,0.074043 -0.113379,0.164284 -0.111066,0.266093l0,14.362112c0,0.10181 0.037022,0.19205 0.111066,0.266094c0.074043,0.074043 0.164283,0.113379 0.266093,0.111065l18.897272,0c0.101809,0 0.19205,-0.037022 0.266093,-0.111065c0.074044,-0.074044 0.113379,-0.164284 0.111065,-0.266094l0,-14.359798c0,-0.101809 -0.037021,-0.19205 -0.111065,-0.266093c-0.076357,-0.076358 -0.164284,-0.113379 -0.268407,-0.113379zm1.890421,0.379472l0,14.362112c0,0.520618 -0.185108,0.964878 -0.555325,1.335095c-0.370217,0.370217 -0.814478,0.555326 -1.335096,0.555326l-18.894958,0c-0.520618,0 -0.964878,-0.185109 -1.335096,-0.555326c-0.370217,-0.370217 -0.555325,-0.814477 -0.555325,-1.335095l0,-14.362112c0,-0.520617 0.185108,-0.964878 0.555325,-1.335095c0.370218,-0.370217 0.814478,-0.555326 1.335096,-0.555326l18.897272,0c0.520618,0 0.964878,0.185109 1.335095,0.555326c0.367904,0.370217 0.553012,0.814478 0.553012,1.335095z"/>
  </g>
 </g>
</svg>
